<svg viewBox="0 0 1920 1080" xmlns="http://www.w3.org/2000/svg">
  <defs>
    <linearGradient id="heroGradient" x1="0%" y1="0%" x2="100%" y2="100%">
      <stop offset="0%" style="stop-color:#1e40af;stop-opacity:1" />
      <stop offset="50%" style="stop-color:#3b82f6;stop-opacity:1" />
      <stop offset="100%" style="stop-color:#60a5fa;stop-opacity:1" />
    </linearGradient>
  </defs>
  <rect width="1920" height="1080" fill="url(#heroGradient)"/>
  
  <!-- Elementos decorativos representando casas -->
  <g opacity="0.1">
    <rect x="100" y="200" width="200" height="150" fill="white" rx="8"/>
    <polygon points="100,200 200,120 300,200" fill="white"/>
    
    <rect x="500" y="300" width="180" height="120" fill="white" rx="8"/>
    <polygon points="500,300 590,230 680,300" fill="white"/>
    
    <rect x="1200" y="180" width="220" height="160" fill="white" rx="8"/>
    <polygon points="1200,180 1310,100 1420,180" fill="white"/>
    
    <rect x="1500" y="350" width="160" height="110" fill="white" rx="8"/>
    <polygon points="1500,350 1580,290 1660,350" fill="white"/>
  </g>
  
  <!-- Padrão de pontos -->
  <g opacity="0.05">
    <circle cx="300" cy="500" r="3" fill="white"/>
    <circle cx="320" cy="520" r="3" fill="white"/>
    <circle cx="340" cy="540" r="3" fill="white"/>
    <circle cx="800" cy="600" r="3" fill="white"/>
    <circle cx="820" cy="620" r="3" fill="white"/>
    <circle cx="840" cy="640" r="3" fill="white"/>
    <circle cx="1400" cy="700" r="3" fill="white"/>
    <circle cx="1420" cy="720" r="3" fill="white"/>
    <circle cx="1440" cy="740" r="3" fill="white"/>
  </g>
</svg>
